<mxfile host="65bd71144e">
    <diagram id="sQVRijAenlUFQbAfo7Zr" name="Page-1">
        <mxGraphModel dx="823" dy="706" grid="1" gridSize="10" guides="1" tooltips="1" connect="1" arrows="1" fold="1" page="1" pageScale="1" pageWidth="850" pageHeight="1100" math="0" shadow="0">
            <root>
                <mxCell id="0"/>
                <mxCell id="1" parent="0"/>
                <mxCell id="2" value="Disc-Jockies" style="swimlane;" vertex="1" parent="1">
                    <mxGeometry x="10" y="40" width="830" height="600" as="geometry"/>
                </mxCell>
                <mxCell id="3" value="" style="rounded=1;whiteSpace=wrap;html=1;" vertex="1" parent="2">
                    <mxGeometry x="30" y="50" width="780" height="60" as="geometry"/>
                </mxCell>
                <mxCell id="4" value="home" style="text;html=1;strokeColor=none;fillColor=none;align=center;verticalAlign=middle;whiteSpace=wrap;rounded=0;" vertex="1" parent="2">
                    <mxGeometry x="90" y="70" width="40" height="20" as="geometry"/>
                </mxCell>
                <mxCell id="7" value="My Discs" style="text;html=1;strokeColor=none;fillColor=none;align=center;verticalAlign=middle;whiteSpace=wrap;rounded=0;" vertex="1" parent="2">
                    <mxGeometry x="230" y="70" width="40" height="20" as="geometry"/>
                </mxCell>
                <mxCell id="5" value="My Reviews" style="text;html=1;strokeColor=none;fillColor=none;align=center;verticalAlign=middle;whiteSpace=wrap;rounded=0;" vertex="1" parent="2">
                    <mxGeometry x="720" y="70" width="40" height="20" as="geometry"/>
                </mxCell>
                <mxCell id="9" value="&lt;h1 style=&quot;text-align: center&quot;&gt;My Profile&lt;/h1&gt;&lt;p&gt;Lorem ipsum dolor sit amet, consectetur adipisicing elit, sed do eiusmod tempor incididunt ut labore et dolore magna aliqua.&lt;/p&gt;" style="text;html=1;strokeColor=none;fillColor=none;spacing=5;spacingTop=-20;whiteSpace=wrap;overflow=hidden;rounded=0;" vertex="1" parent="2">
                    <mxGeometry x="60" y="140" width="720" height="100" as="geometry"/>
                </mxCell>
                <mxCell id="6" value="My Courses" style="text;html=1;strokeColor=none;fillColor=none;align=center;verticalAlign=middle;whiteSpace=wrap;rounded=0;" vertex="1" parent="2">
                    <mxGeometry x="400" y="70" width="40" height="20" as="geometry"/>
                </mxCell>
                <mxCell id="11" value="Make new Score card" style="rounded=1;whiteSpace=wrap;html=1;" vertex="1" parent="2">
                    <mxGeometry x="70" y="480" width="120" height="60" as="geometry"/>
                </mxCell>
                <mxCell id="12" value="My Score cards" style="text;html=1;strokeColor=none;fillColor=none;align=center;verticalAlign=middle;whiteSpace=wrap;rounded=0;" vertex="1" parent="2">
                    <mxGeometry x="570" y="70" width="40" height="20" as="geometry"/>
                </mxCell>
                <mxCell id="14" value="Make a new post" style="rounded=1;whiteSpace=wrap;html=1;" vertex="1" parent="2">
                    <mxGeometry x="370" y="360" width="120" height="60" as="geometry"/>
                </mxCell>
                <mxCell id="15" value="Edit existing post" style="rounded=1;whiteSpace=wrap;html=1;" vertex="1" parent="2">
                    <mxGeometry x="640" y="360" width="120" height="60" as="geometry"/>
                </mxCell>
                <mxCell id="10" value="Most recent score-card" style="swimlane;" vertex="1" parent="1">
                    <mxGeometry x="40" y="290" width="200" height="200" as="geometry"/>
                </mxCell>
                <mxCell id="13" value="Container" style="swimlane;" vertex="1" parent="1">
                    <mxGeometry x="325" y="290" width="485" height="280" as="geometry"/>
                </mxCell>
            </root>
        </mxGraphModel>
    </diagram>
</mxfile>